# xmcd
#
# Track frame offsets:
#	150
#	12136
#	26828
#	42246
#	54958
#	70286
#	82122
#	96754
#	121652
#	134028
#	146506
#
# Disc length: 2133 seconds
# Revision: 0
# Processed by: cddbd v1.5.2PL0 Copyright (c) Steve Scherf et al.
# Submitted via: dBpowerAMP V12.0
#
DISCID=9408530b
DTITLE=Junior Wells - Coming At You [Vanguard] (tape)
DYEAR=1968
DGENRE=Blues
TTITLE0=Stop Breakin' Down
TTITLE1=Somebody's Tippin' In
TTITLE2=Five Long Years
TTITLE3=Mystery Train
TTITLE4=So Sad This Morning
TTITLE5=When My Baby Left Me
TTITLE6=Little By Little
TTITLE7=Tobacco Road
TTITLE8=Worried Life Blues
TTITLE9=I'm Your Hoochie Coochie Man
TTITLE10=You Don't Love Me
EXTD=
EXTT0=
EXTT1=
EXTT2=
EXTT3=
EXTT4=
EXTT5=
EXTT6=
EXTT7=
EXTT8=
EXTT9=
EXTT10=
PLAYORDER=
